<svg width="1839" height="347" viewBox="0 0 1839 347" version="1.1" xmlns="http://www.w3.org/2000/svg" xmlns:xlink="http://www.w3.org/1999/xlink">
<title>logo</title>
<desc>Created using Figma</desc>
<g id="Canvas" transform="translate(-12527 -9123)">
<g id="logo">
<g id="logo">
<g id="Vector">
<use xlink:href="#path0_fill" transform="translate(12527 9123)" fill="#425AFF"/>
</g>
<g id="Vector">
<use xlink:href="#path1_fill" transform="translate(12687.9 9284.31)" fill="#2F44CC"/>
<use xlink:href="#path2_fill" transform="translate(12687.9 9284.31)" fill="#2F44CC"/>
</g>
</g>
<g id="exaquark">
<use xlink:href="#path3_fill" transform="translate(12977 9056)" fill="#333333"/>
</g>
</g>
</g>
<defs>
<path id="path0_fill" d="M 160.933 70.7676C 184.579 70.8144 208.211 79.8795 226.252 97.9629C 242.5 114.249 251.451 135.079 253.104 156.372L 321.79 156.372C 319.187 69.568 248.164 0 160.93 0C 151.21 0.000166085 141.691 0.86416 132.445 2.51954C 131.124 2.75603 129.809 3.00866 128.5 3.27724C 55.165 18.3186 0 83.3562 0 161.308C 0 248.691 69.3198 319.845 155.847 322.537L 155.847 256.341C 133.799 255.177 112.087 246.155 95.2458 229.274C 76.5713 210.556 67.5367 185.835 68.142 161.308C 68.7092 138.321 77.7439 115.506 95.2458 97.9629C 113.38 79.7863 137.162 70.7212 160.93 70.7676L 160.933 70.7676Z"/>
<path id="path1_fill" d="M 173.895 126.252C 187.461 139.849 187.461 161.896 173.895 175.494C 160.329 189.091 138.334 189.091 124.768 175.494C 111.202 161.896 111.202 139.849 124.768 126.252C 138.334 112.654 160.329 112.654 173.895 126.252Z"/>
<path id="path2_fill" fill-rule="evenodd" d="M 5.09723 95.0119L 5.09723 161.229C 89.9334 158.583 158.225 90.1256 160.855 5.08924L 92.413 5.08924C 91.7353 27.9174 82.7049 50.5427 65.3219 67.9663C 48.5767 84.7504 27.0158 93.7656 5.09723 95.0119Z"/>
<path id="path3_fill" d="M 166.4 241.4C 166.4 198.84 137.28 162.68 91.84 162.68C 46.4 162.68 12.8 198.84 12.8 244.92C 12.8 291 46.4 327.16 95.36 327.16C 118.08 327.16 138.56 318.2 153.6 303.16C 156.16 300.6 156.16 298.36 153.92 296.12L 139.84 282.36C 137.6 280.12 135.68 280.12 132.8 282.04C 121.92 289.72 112 292.92 99.52 292.92C 74.88 292.92 58.88 281.08 54.72 260.28L 155.2 260.28C 164.8 260.28 166.4 253.88 166.4 241.4ZM 92.16 198.52C 111.04 198.52 126.08 210.68 128.96 232.76L 54.08 232.76C 57.6 210.68 72.96 198.52 92.16 198.52ZM 327.605 317.24L 276.405 242.68L 325.045 171.96C 327.285 168.76 325.685 166.2 321.845 166.2L 284.725 166.2C 282.165 166.2 280.565 167.16 278.965 169.4L 252.405 210.68L 225.845 169.4C 224.245 167.16 222.645 166.2 220.085 166.2L 182.965 166.2C 179.125 166.2 177.525 168.76 179.765 171.96L 228.405 242.68L 177.205 317.24C 174.965 320.44 176.565 323 180.405 323L 217.525 323C 220.085 323 221.685 322.04 223.285 319.8L 252.405 274.68L 281.525 319.8C 283.125 322.04 284.725 323 287.285 323L 324.405 323C 328.245 323 329.845 320.44 327.605 317.24ZM 497.145 166.2L 467.705 166.2C 464.825 166.2 463.225 168.12 462.905 171L 461.945 185.72C 450.105 172.28 434.105 162.68 414.265 162.68C 370.425 162.68 338.425 199.16 338.425 244.92C 338.425 290.68 370.425 327.16 414.265 327.16C 434.745 327.16 450.425 317.88 461.625 304.76L 462.905 318.2C 463.225 321.08 464.825 323 467.705 323L 497.145 323C 500.025 323 501.945 321.08 501.945 318.2L 501.945 171C 501.945 168.12 500.025 166.2 497.145 166.2ZM 419.385 288.76C 396.025 288.76 379.065 269.88 379.065 244.6C 379.065 219.64 396.025 201.08 419.385 201.08C 442.425 201.08 459.385 220.92 459.385 244.6C 459.385 268.28 442.425 288.76 419.385 288.76ZM 691.207 166.2L 661.768 166.2C 658.888 166.2 657.288 168.12 656.967 171L 656.007 185.72C 644.167 172.28 628.168 162.68 608.327 162.68C 564.487 162.68 532.487 199.16 532.487 244.92C 532.487 290.68 564.487 327.16 608.327 327.16C 627.528 327.16 642.567 319.16 653.767 307.32L 653.767 379C 653.767 381.88 655.688 383.8 658.567 383.8L 691.207 383.8C 694.087 383.8 696.008 381.88 696.008 379L 696.008 171C 696.008 168.12 694.087 166.2 691.207 166.2ZM 613.447 288.76C 590.087 288.76 573.128 269.88 573.128 244.6C 573.128 219.64 590.087 201.08 613.447 201.08C 636.487 201.08 653.447 220.92 653.447 244.6C 653.447 268.28 636.487 288.76 613.447 288.76ZM 873.43 166.2L 840.79 166.2C 837.91 166.2 835.99 168.12 835.99 171L 835.99 257.72C 835.99 268.92 824.79 288.12 802.07 288.12C 787.03 288.12 771.99 279.16 771.99 253.24L 771.99 171C 771.99 168.12 770.07 166.2 767.19 166.2L 734.55 166.2C 731.67 166.2 729.75 168.12 729.75 171L 729.75 260.92C 729.75 302.84 754.07 327.16 789.27 327.16C 809.11 327.16 825.11 315.96 835.99 300.6L 837.27 318.2C 837.59 321.08 839.19 323 842.07 323L 873.43 323C 876.31 323 878.23 321.08 878.23 318.2L 878.23 171C 878.23 168.12 876.31 166.2 873.43 166.2ZM 1067.46 166.2L 1038.02 166.2C 1035.14 166.2 1033.54 168.12 1033.22 171L 1032.26 185.72C 1020.42 172.28 1004.42 162.68 984.577 162.68C 940.737 162.68 908.737 199.16 908.737 244.92C 908.737 290.68 940.737 327.16 984.577 327.16C 1005.06 327.16 1020.74 317.88 1031.94 304.76L 1033.22 318.2C 1033.54 321.08 1035.14 323 1038.02 323L 1067.46 323C 1070.34 323 1072.26 321.08 1072.26 318.2L 1072.26 171C 1072.26 168.12 1070.34 166.2 1067.46 166.2ZM 989.697 288.76C 966.337 288.76 949.378 269.88 949.378 244.6C 949.378 219.64 966.337 201.08 989.697 201.08C 1012.74 201.08 1029.7 220.92 1029.7 244.6C 1029.7 268.28 1012.74 288.76 989.697 288.76ZM 1210.64 170.04C 1206.16 166.2 1198.48 162.68 1189.52 162.68C 1170.64 162.68 1157.84 173.24 1149.52 188.28L 1148.24 171C 1147.92 168.12 1146.32 166.2 1143.44 166.2L 1112.4 166.2C 1109.52 166.2 1107.6 168.12 1107.6 171L 1107.6 318.2C 1107.6 321.08 1109.52 323 1112.4 323L 1145.04 323C 1147.92 323 1149.84 321.08 1149.84 318.2L 1149.84 235C 1149.84 215.8 1162.64 201.08 1182.48 201.08C 1188.56 201.08 1192.4 202.36 1195.6 203.32C 1198.8 204.28 1201.36 203.64 1202.64 200.12L 1212.24 176.44C 1213.2 174.2 1213.2 171.96 1210.64 170.04ZM 1387.46 317.24L 1322.83 231.16L 1378.18 171.96C 1381.07 169.08 1379.79 166.2 1375.62 166.2L 1338.83 166.2C 1336.59 166.2 1334.66 166.84 1333.07 168.76L 1275.46 230.84L 1275.46 94.2C 1275.46 91.32 1273.54 89.4 1270.66 89.4L 1238.03 89.4C 1235.14 89.4 1233.22 91.32 1233.22 94.2L 1233.22 318.2C 1233.22 321.08 1235.14 323 1238.03 323L 1270.66 323C 1273.54 323 1275.46 321.08 1275.46 318.2L 1275.46 281.72L 1297.22 258.68L 1343.62 320.12C 1345.22 322.36 1346.83 323 1349.38 323L 1384.59 323C 1388.42 323 1389.7 320.44 1387.46 317.24Z"/>
</defs>
</svg>
